<svg
    id="sw-js-blob-svg"
    viewBox="0 0 100 100"
    xmlns="http://www.w3.org/2000/svg"
  >
    {" "}
    <defs>
      {" "}
      <linearGradient id="sw-gradient" x1={0} x2={1} y1={1} y2={0}>
        {" "}
        <stop id="stop1" stopColor="rgba(239, 247, 254, 1)" offset="0%" />{" "}
        <stop id="stop2" stopColor="rgba(239, 247, 254, 1)" offset="100%" />{" "}
      </linearGradient>{" "}
    </defs>{" "}
    <path
      fill="url(#sw-gradient)"
      d="M14,-17.1C16.1,-14.8,14.6,-8.6,17.6,-1.6C20.7,5.4,28.4,13.1,27.9,18.1C27.4,23.1,18.7,25.3,11.5,25C4.4,24.7,-1.3,21.9,-5.8,19C-10.3,16,-13.6,12.9,-20.1,8.3C-26.7,3.8,-36.5,-2.2,-35.2,-5.6C-33.9,-9,-21.4,-9.8,-13.7,-11.1C-6,-12.4,-3,-14.2,1.5,-15.9C5.9,-17.6,11.8,-19.4,14,-17.1Z"
      width="100%"
      height="100%"
      transform="translate(50 50)"
      strokeWidth={0}
      style={{ transition: "all 0.3s ease 0s" }}
      stroke="url(#sw-gradient)"
    />{" "}
  </svg>